<svg xmlns="http://www.w3.org/2000/svg" xmlns:xlink="http://www.w3.org/1999/xlink" width="1078" height="758" viewBox="0 0 1077.87 757.27">
    <style>
        <![CDATA[.B{opacity:.1}.C{fill:#6c63ff}.D{opacity:.2}.E{fill:#d38884}.F{fill:#db8b8b}.G{fill:#f7f7fd}.H{fill:#ffd037}.I{fill:#ceddf9}.J{fill:#ffd2c6}.K{fill:#626696}.L{fill:#4c4981}.M{fill:#fc6681}.N{stroke:#565987}.O{stroke-miterlimit:10}]]>
    </style>
    <defs>
        <linearGradient id="A" x1="258.97" x2="258.97" y1="696.19" y2="413.55" gradientUnits="userSpaceOnUse">
            <stop offset="0" stop-color="gray" stop-opacity=".25"/>
            <stop offset=".54" stop-color="gray" stop-opacity=".12"/>
            <stop offset="1" stop-color="gray" stop-opacity=".1"/>
        </linearGradient>
        <path id="B" d="M213.42 602.83l1.56 4.67-5.04 5.06-16.74 3.9-12.07-1.17.78-4.28a5.15 5.15 0 0 1 3.83-3.77c5-1.17 14.42-3.82 16.4-7.52z"/>
        <path id="C" d="M220.04 482.53s-.4 16.74-4.28 24.92l-.82 23.74s1.17 21.8 3.5 26.1-5.06 40.5-5.06 40.5V604s-12.45 4.68-16-.77l3.56-46.33-1.53-64.26z"/>
        <path id="D" d="M227.83 428.8l2.33 6.23 1.95 13.24a11.7 11.7 0 0 1-3.5 10.12c-4.67 4.67-10.9 14.4-10.9 14.4l-7.4-22.17s7.4-1.17 6.23-6.23-.78-14.4-.78-14.4z"/>
    </defs>
    <path d="M663.83 91.84c-46.25 32.38-106.24 30.3-158.8 13.44S404.16 58.43 352.94 37.1A494.21 494.21 0 0 0 219.32 2.28C154.04-5.2 81.14 3.9 35.66 56.28c-50.65 58.3-46.76 163.45 8 217 27.87 27.22 64.36 40.58 96.18 61.83s61.3 56.52 58.6 97.52c-2.5 38-31.68 67.12-61.87 85.4-23.33 14.13-52.06 29.56-54.87 58.83-2.72 28.32 21.44 50.5 44.5 63.13 75.26 41.18 168 40.78 243-1 26.74-14.95 51.3-34.8 79.35-46.37 73.65-30.52 154.8.2 232.8 11.44a465.38 465.38 0 0 0 198-14.41c38.62-11.4 77.4-28.85 104.52-61.34 19.57-23.43 31.76-53.07 43.2-82.36q18.3-46.83 35.2-94.33c6.75-19 13.4-38.38 15.15-58.72 3.16-36.85-10.16-73.28-28.3-104.38-43.07-73.9-115.6-125.82-194.17-139s-161.67 12.57-222.6 68.94" class="B C"/>
    <path d="M540.65 103.4l-3.8 221s137.92 0 255.27 38.1l2.28-223.26s-188.2-45-253.74-35.84z" class="B"/>
    <path d="M537.65 99.4l-3.8 221s137.92 0 255.27 38.1l2.28-223.26s-188.2-45-253.74-35.84z" class="G"/>
    <path d="M471.4 109.73l3.8 221s-137.92 0-255.26 38.1l-2.3-223.26s188.2-44.94 253.74-35.84z" class="B"/>
    <path d="M474.4 104.73l3.8 221s-137.92 0-255.26 38.1l-2.3-223.26s188.2-44.94 253.74-35.84z" class="G"/>
    <path d="M412.46 130.5l2.05 118.5s-74 0-136.9 20.43l-1.23-119.73s100.94-24.1 136.08-19.2z" class="C D"/>
    <path d="M875.68 184.7v218.7s45-5.34 139.45 111.25l8.38-218.7S925.2 190.02 875.68 184.7z" class="B"/>
    <path d="M873.68 181.7v218.7s45-5.34 139.45 111.25l8.38-218.7S923.2 187.02 873.68 181.7z" class="G"/>
    <path d="M148.33 185.7v218.7s-44.96-5.34-139.4 111.25L.5 296.94S98.8 191.02 148.33 185.7z" class="B"/>
    <path d="M151.33 181.7v218.7s-44.96-5.34-139.4 111.25L3.5 292.94s98.3-105.92 147.82-111.25z" class="G"/>
    <path d="M574.5 145.37l93.43 16.7v13.6l-93.43-17.94v-12.38z" class="C D"/>
    <path fill="#fff" d="M394.5 276.87l-93.42 16.7v13.6l93.42-17.94v-12.38zm181.24-106.13L746.5 206v13.6l-170.76-36.5v-12.38zm0 25.36l170.76 35.26V245l-170.76-36.5v-12.4z"/>
    <path d="M913.5 252.3v12l36.63 29.76 1.72-10.3-38.35-31.47z" class="C D"/>
    <path fill="#fff" d="M913.5 368.3v12l36.63 29.76 1.72-10.3-38.35-31.47zm.58-95.4l-.58 12.02 69.25 65.23-1.14-13.73-67.53-63.52zm-.58 22.33v11.44l69.25 66.4V358.2l-69.25-62.95z"/>
    <g class="C">
        <path d="M110.93 254.9l.57 12.02-69.24 65.23 1.14-13.73 67.53-63.52zm.57 22.33v11.44l-69.24 66.4V340.2l69.24-62.95z" class="D"/>
        <ellipse cx="204.61" cy="621.88" class="B" rx="57" ry="10.26"/>
        <path d="M69.43 565.47s5.5 7.18-2.54 18-14.65 20-12 26.76c0 0 12.1-20.14 22-20.42s3.4-12.18-7.46-24.34z"/>
    </g>
    <path d="M69.43 565.47a8.63 8.63 0 0 1 1.12 2.25c9.62 11.3 14.75 21.85 5.5 22.12-8.6.24-19 15.65-21.42 19.54a10.05 10.05 0 0 0 .29.88s12.1-20.14 22-20.42 3.36-12.2-7.5-24.37z" class="B"/>
    <g class="H">
        <path d="M79.64 574.63c0 2.53-.28 4.58-.63 4.58s-.64-2.05-.64-4.58.36-1.34.7-1.34.56-1.2.56 1.34z"/>
        <path d="M83.15 577.63c-2.22 1.2-4.16 1.94-4.33 1.64s1.5-1.54 3.72-2.75 1.34-.33 1.5 0 1.32-.1-.9 1.1z"/>
    </g>
    <path d="M40.4 565.47s-5.47 7.16 2.53 18.03 14.65 20 12 26.76c0 0-12.1-20.14-22-20.42s-3.37-12.2 7.47-24.37z" class="C"/>
    <path d="M40.4 565.47a9 9 0 0 0-1.12 2.25c-9.62 11.3-14.75 21.85-5.5 22.12 8.62.24 19 15.65 21.42 19.54a7.54 7.54 0 0 1-.29.88c0 0-12.1-20.14-22-20.42s-3.35-12.2 7.5-24.37z" class="B"/>
    <g class="H">
        <path d="M30.2 574.63c0 2.53.28 4.58.63 4.58s.64-2.05.64-4.58-.36-1.34-.7-1.34-.56-1.2-.56 1.34z"/>
        <path d="M26.7 577.63c2.22 1.2 4.15 1.94 4.32 1.64s-1.5-1.54-3.72-2.75-1.34-.33-1.5 0-1.3-.1.9 1.1z"/>
    </g>
    <path fill="#a8a8a8" d="M31.94 609.32s15.36-.47 20-3.77 23.62-7.23 24.77-1.94 23.08 26.3 5.74 26.43-40.3-2.7-44.9-5.52-5.6-15.2-5.6-15.2z"/>
    <path d="M82.76 628.2c-17.34.14-40.3-2.7-44.9-5.52-3.52-2.14-4.92-9.83-5.4-13.38h-.5s1 12.4 5.6 15.2 27.57 5.66 44.9 5.52c5 0 6.74-1.82 6.64-4.46-.7 1.6-2.6 2.6-6.33 2.64z" class="D"/>
    <ellipse cx="600.5" cy="470.71" class="B C" rx="94" ry="16.1"/>
    <path d="M581.54 253.42a13.09 13.09 0 0 0-1 3.07q-.1.4-.18.84c-.6 3.06-1 6.9-1.2 9.15l-.15 1.84s-21.7-1.45-17.93-5.1a8 8 0 0 0 2-3.6 15.57 15.57 0 0 0 .28-1.18 20.28 20.28 0 0 0 .35-2.75v-.7a28.36 28.36 0 0 0-.21-4.49s7.05 0 12.37.57c3.58.4 6.37 1.12 5.68 2.34zm-37.6 103.2c-7.4-.24-1.94-15.63-1.1-17.7s-1.26-7.14-1.26-7.14l-2.5-15.62a39.15 39.15 0 0 0-.84-5.94 10 10 0 0 1 1-5.82c.85-1.33.72-6.66.72-6.66v-6.9l1.65-2.18 4.2 4 1.17 1.1 2.06 7.72-.73 11.06-.4 10.77 2.55 14.9s.9 18.66-6.55 18.4z" class="E"/>
    <path d="M546.28 294.5l-6.3-2.62v-1.02l1.64-2.18 4.22 3.98.44 1.84z" class="B"/>
    <path d="M543.38 278.74a29.06 29.06 0 0 0-1.75 6.18 27.4 27.4 0 0 1-1.65 5.93l7 2.9z" class="L"/>
    <path d="M543.38 278.74a29.06 29.06 0 0 0-1.75 6.18 27.4 27.4 0 0 1-1.65 5.93l7 2.9z" opacity=".05"/>
    <path d="M599.14 431.73l-.58 1.24-.63 4.2c0 .1-1.82 2.84-1.82 2.84l-4.57 1-1.94-.24a27.28 27.28 0 0 0-.52-3.36l-.23-.95a25.68 25.68 0 0 0-3.19-7.24s-3.4-8.36-4.6-9.45-5.82-12.12-5.33-14.78c.26-1.46.05-6.36-.2-10.44l-.42-6.13 11.5-6.8 1.34 2.1.8 1.25s0 .24-.05.64v.15a21.34 21.34 0 0 1-1 5c0 0-.86 6.18 0 7.27s3.6 15.66 4.2 22.4v.6c.24 3.1 2.16 5.86 4.1 7.88a7.18 7.18 0 0 0 .38.4 26.38 26.38 0 0 0 2.74 2.39z" class="E"/>
    <path d="M589.6 440.76l1.94.24 4.57-1 1.82-2.84c0-.1.63-4.2.63-4.2l.65-1.4a24.29 24.29 0 0 1-3.14-2.59l-.32-.3c-.1-.1.65 4-2.83 5.8l-4.05 2z" class="B"/>
    <path d="M599.94 432.3l-.65 1.4-.63 4.2c0 .1-1.82 2.84-1.82 2.84l-4.57 1-2.63-.3c0-.53-.1-1.28-.22-2.2l-.34-1.82 4.54-2.22c3.5-1.8 2.83-5.8 2.83-5.8a27.57 27.57 0 0 0 2.39 2.12l1.1.77z" class="I"/>
    <path d="M599.94 432.3l-.65 1.4-.63 4.2c0 .1-1.82 2.84-1.82 2.84l-4.57 1-2.63-.3c0-.53-.1-1.28-.22-2.2a9.11 9.11 0 0 1 1.66.23s6.24 1.33 6.54-3.6c.18-2.8.76-3.9 1.22-4.33l1.1.77z" class="B"/>
    <path fill="#cc8294" d="M599.48 431.98s-1.55-.34-1.86 4.6-6.54 3.6-6.54 3.6-3.06-.76-3.1.5a11.88 11.88 0 0 0 .82 3.42c0 0 .18 2.94.76 3.64s.2 3.3.2 3.3.24 1.94 5.06 0c0 0 4.3-.9 7.87-6.24.12-.18-.42-.73 2.7-1.85s12-8.3 11.36-11.8a3 3 0 0 0-2.12-2.52 3.65 3.65 0 0 0-2.79.38 22.09 22.09 0 0 1-2.61 1.2 12.81 12.81 0 0 1-3.72.89 14.31 14.31 0 0 0-2.89.55 6 6 0 0 1-3.16.33z"/>
    <path d="M564.16 398.04a8.48 8.48 0 0 0-1.76 2c-1.76 2.7-2.82 6.45-4 8.07-1.54 2.1-2 6.18-2 6.18-.4 2.68-6.1 17-7.63 19.54s-3.68 9.45-3.68 9.45c-1.3 1.64-1.23 4.08-1.1 5.24 0 .2 0 .36.06.47s0 .2 0 .2v.07l-2.1 3.57-6.68-.93-3.45-2.34a11.74 11.74 0 0 0 .75-1.43c1.85-4.12 3.16-11.48 3.16-11.48s1.86-8.4 1.72-10.36a78.49 78.49 0 0 1 .55-8c0 0 5.26-16.05 6.94-18.65a7.48 7.48 0 0 0 1.26-3.45 2.9 2.9 0 0 0 0-.75l2.26-2.25s18.6 2.55 15.7 4.86z" class="E"/>
    <path d="M544.12 448.48v.8l-2.1 3.57-6.68-.93-3.45-2.34a11.74 11.74 0 0 0 .75-1.43c1.68-.48 5.52.88 5.52.88s4.15.8 5.9-.48c0-.01.02-.04.06-.06z" class="B"/>
    <path d="M542.5 458l-6.78 1.62-6.22-4.6.32-2.6a4.47 4.47 0 0 0 1.14-1 4.1 4.1 0 0 0 .9-1.86c.36-1.9 6.27.18 6.27.18s4.32.82 6-.55a10.54 10.54 0 0 0 .32 3.74 2.79 2.79 0 0 0 1 1.49c1.73 1.2-2.95 3.57-2.95 3.57z" class="I"/>
    <path d="M542.5 458l-6.78 1.62-6.22-4.6.32-2.6a4.47 4.47 0 0 0 1.14-1h1.36c1 .1 3.5 4.55 3.5 4.55 6.14.4 8-1.6 8.63-3.08a2.79 2.79 0 0 0 1 1.49c1.73 1.23-2.95 3.6-2.95 3.6z" class="B"/>
    <path fill="#cc8294" d="M535.8 456.74s-2.46-4.45-3.5-4.54a23.54 23.54 0 0 0-2.64 0c0 0-2.72 6.45-3.72 7s-2.46 3.64-2.46 3.64 7.2 7 14.16 5.63a14.43 14.43 0 0 1 6.38 1.59c3.22 1.68 16.67.4 18.3-2.54 1.22-2.22 1.7-3.83.63-5a2.92 2.92 0 0 0-2.53-.86c-1.7.23-5.5.2-8.82-3.9 0 0-6.14-5.62-6.64-5.63s.4 5.25-9.17 4.6z"/>
    <path d="M588.78 385.72l-.05.06c-.42.46-3.38 3.7-4.28 3.94a42.75 42.75 0 0 0-4.36 1.93c0 0-1.82 2.43-3.27 2.55a5.71 5.71 0 0 0-1.28.34l-.42-6.13 11.5-6.78 1.34 2.1.75 1.9z" class="B"/>
    <path d="M546.94 338.93s-4.48 5.84 0 13.6a45.27 45.27 0 0 0 9.21 11.63l15.26 31.62s4-2.18 5.46-2.3 3.27-2.54 3.27-2.54a42.36 42.36 0 0 1 4.36-1.94c1-.24 4.33-4 4.33-4s-1.67-3.63-1.3-4.6-1.1-3.4-1.1-3.4a20 20 0 0 1-1-3.75c0-1-1.58-3.27-1.58-3.27s-1.57-2.43-1.57-3.76-2.35-6.58-2.35-6.58l-.6-23z" class="I"/>
    <path d="M588.78 385s-3.36 3.75-4.33 4a42.36 42.36 0 0 0-4.36 1.94c0 0-1.82 2.42-3.27 2.54a11.6 11.6 0 0 0-3 1.07l-2.47 1.23-15.27-31.62a33.07 33.07 0 0 1-3.71-3.8 52.47 52.47 0 0 1-5.5-7.83 13.11 13.11 0 0 1-1.74-9.43 10.85 10.85 0 0 1 1.74-4.15l32.5-2.3.18 6.8.4 16.2.8 1.88a20.55 20.55 0 0 1 1.51 4.66c0 1.34 1.57 3.76 1.57 3.76s1.58 2.3 1.58 3.27a20.28 20.28 0 0 0 1 3.76s1.46 2.42 1.1 3.38 1.3 4.65 1.3 4.65z" opacity=".05"/>
    <path d="M564.16 398.04a8.48 8.48 0 0 0-1.76 2c-6.6.48-14.25-3-16.24-3.92a2.9 2.9 0 0 0 0-.75l2.26-2.25s18.64 2.6 15.74 4.92z" class="B"/>
    <path d="M583.6 346.1l-1.33 4.84c-.33 1.45-1.1 8.6-1.1 8.6l-8.85 42.17c-2.66 1.46-9.32-2.43-9.32-2.43-7.76.86-17.33-4.1-17.33-4.1s1.57-5.1 1.2-7.63 2.18-4.6 2.18-4.6c-.6-2.3 1.57-12.36 1.57-12.36s.5-3.75 2.3-4.72-.24-2.42-.73-3.28a3.71 3.71 0 0 1 .17-2.22 16.44 16.44 0 0 1 .56-1.65c-4.62-4.62-5.33-11.84-5.34-15.85a25.62 25.62 0 0 1 .13-2.93l31.85-5.57 2.8 8.58z" class="I"/>
    <path d="M581.54 253.42a13.09 13.09 0 0 0-1 3.07q-.1.4-.18.84c-2.1 1.37-3.4 1.38-6.1 1.38-.93 0-1.45-1.78-2.33-2 0 0-1.32-4.76-1.7-.75-2.54-.52-4.73 1.46-6.53-.27v-.7a28.36 28.36 0 0 0-.21-4.49s7.05 0 12.37.57c3.58.42 6.37 1.13 5.68 2.35z" class="B"/>
    <path d="M586.54 245.26a13.52 13.52 0 0 1-16.21 13.23 13.5 13.5 0 0 1-.941-26.215 13.5 13.5 0 0 1 15.421 6.355 13.26 13.26 0 0 1 1.73 6.63z" class="E"/>
    <path d="M579.15 266.48l-.15 1.84s-21.7-1.45-17.93-5.1a8 8 0 0 0 2-3.6l9.4 1.54s2.66 2.06 4.72 4a8.55 8.55 0 0 0 1.95 1.31zm3.25 77.15a7 7 0 0 1-2.85-.21 5.78 5.78 0 0 1-1.15-.51c-1.82-1.1-7.87.25-7.87.25s-16.48 1.1-17.2 0c-.4-.63-3.32-.54-5.7-.35l-2.46.24a10.85 10.85 0 0 1 1.74-4.15l10.86-.77 21.85-3.82 2.23 6.86a24.63 24.63 0 0 0 .56 2.46z" class="B"/>
    <path d="M572.45 261.9l-11.82-1.94a3.52 3.52 0 0 1-2.23 1.94c-1.57.36-8.6 4-11.75 8.36l-3.15 4.37s-2.55 3.15-1.7 5.7 1.82 11.15 1.82 11.15l1.2 9.57s2.3 6.9 1.58 9.94.36 15.75.36 15.75l-2.42 15.75s8.23-1.1 9 0 17.2 0 17.2 0 6-1.34 7.87-.25a6.58 6.58 0 0 0 4 .73s-1.45-5-.6-7.75.6-7.88.6-7.88 1.2-7.4.6-8.72 1.34-6.18 1.34-6.18l6.42-33.8s-.78-6.06-4.2-8.12-7.3-2.67-9.36-4.6-4.77-4-4.77-4z" class="L"/>
    <path d="M577.94 295.22v4l3.73 10.06 1.35 9.33s2.43 6.66 2.43 9 5.93 13.45 5.93 13.45 1.62 3.76.8 4.48-7.83 16.72 1 16.24 6.06-17.2 6.06-17.2l-1.2-7.27-1.7-19.5s-2.18-7.75-2.42-9.45-1.82-10.3-1.82-10.3l-1.33-5.57z" class="E"/>
    <path d="M573.7 307.82l-13.17 7.54-4.1 6.18 5.45-5.54 11.8-8.18zm-4 14.44s-6 3.9-8.82 3.9-9.36 6.72-9.36 6.72 9.27-6 10-5.8 8.18-4.82 8.18-4.82zm-15.36 2.1s-5.63 5.1-4.18 5.64 9-5.64 9-5.64zm24.9-18.17s-4.36 5.9-3.18 5.82 4.54-3.46 4.54-3.46zm.63 5.82s-4.72 5.36-4.54 6.72 4.54-6.72 4.54-6.72zm1.2 2.68s-3.18 5.68-1.82 6.86 1.82-6.86 1.82-6.86zm-4.12-14.58s-2.37 4-.64 4.27 1.9 0 1.9 0zm.66-14.64a41.76 41.76 0 0 1-2.42 7.13 33.06 33.06 0 0 1-.94-3.57 24.36 24.36 0 0 1 3.36-3.56zm7.2-46.83a5.88 5.88 0 0 1-.91 1.41 10.44 10.44 0 0 0-1.64 1.88 10.09 10.09 0 0 0-.59 3.21c-.18 1.08-.86 2.28-2 2.3a4.06 4.06 0 0 1-1.6-.48 1.63 1.63 0 0 0-1.59.05 1.78 1.78 0 0 0-.51 1.2 15.87 15.87 0 0 0-.16 2.84c0 .38 0 .75.06 1.13a6.35 6.35 0 0 1-.21 3.6 4.36 4.36 0 0 1-2.24 1.8 13.85 13.85 0 0 1-3.14.88 34.52 34.52 0 0 1-6.19.2 1.53 1.53 0 0 1-.56-.09.79.79 0 0 1-.24-.15 18.93 18.93 0 0 0 .37-3.45 13.5 13.5 0 1 1 21.15-16.34z" class="B"/>
    <path fill="#1e1637" d="M579.17 227.2c-1.24-.13-2.4.53-3.63.8-2.5.55-5.08-.6-7.66-.58a14.22 14.22 0 0 0-6.3 1.88 15.21 15.21 0 0 0-4.2 2.94 6.85 6.85 0 0 0-2 4.62 7.57 7.57 0 0 1-.09 3 8.45 8.45 0 0 1-.92 1.4 4.16 4.16 0 0 0-.43 3.47 11.51 11.51 0 0 0 2.07 3.1c1.66 2.13 2.7 4.68 4.2 6.94a21.6 21.6 0 0 0 2.18 2.77 1.54 1.54 0 0 0 .47.37 1.44 1.44 0 0 0 .55.08c3.16.1 6.43.16 9.34-1.08a4.27 4.27 0 0 0 2.24-1.8 6.35 6.35 0 0 0 .22-3.6 16.49 16.49 0 0 1 .09-4 1.76 1.76 0 0 1 .51-1.19 1.6 1.6 0 0 1 1.6-.05 4.36 4.36 0 0 0 1.59.48c1.1 0 1.78-1.24 2-2.32a5.44 5.44 0 0 1 2.23-5.09 7.7 7.7 0 0 0 1.37-6.83c-.72-2.25-2.92-5.06-5.42-5.3z"/>
    <path d="M592.14 284.63a15.74 15.74 0 0 0 0 5c-.12 1.34 0 8.73 0 8.73-4-1.22-14.17 1.2-14.17 1.2l-1.2-3.63a9 9 0 0 1-1.52-3 33.25 33.25 0 0 1-.94-3.58 74.25 74.25 0 0 1-1.19-7.61c-.5-3.85 5.22-8 9.56-10.3s8.14 7.5 8.14 7.5 1.8 3.77 1.33 5.67z" class="B"/>
    <path d="M592.14 283.94a15.79 15.79 0 0 0 0 5c-.12 1.33 0 8.72 0 8.72-4-1.2-14.17 1.2-14.17 1.2l-1.2-3.63a8.9 8.9 0 0 1-1.52-3 33.06 33.06 0 0 1-.94-3.57 74.69 74.69 0 0 1-1.19-7.61c-.5-3.86 5.22-8 9.56-10.3s8.14 7.5 8.14 7.5 1.8 3.74 1.33 5.68z" class="L"/>
    <path d="M584.45 232.5a8 8 0 0 0-.89-1.95l.17.5a7.7 7.7 0 0 1-1.37 6.83 5.44 5.44 0 0 0-2.23 5.09c-.17 1.08-.86 2.27-2 2.3a4.06 4.06 0 0 1-1.6-.48 1.63 1.63 0 0 0-1.59.05 1.78 1.78 0 0 0-.51 1.2 16.4 16.4 0 0 0-.09 4c.1 1.22.35 2.53-.22 3.6a4.45 4.45 0 0 1-2.24 1.8c-2.9 1.24-6.18 1.17-9.34 1.08a1.45 1.45 0 0 1-.55-.09 1.29 1.29 0 0 1-.47-.37 19.4 19.4 0 0 1-2.18-2.77c-1.5-2.26-2.53-4.8-4.2-6.94-.45-.58-1-1.15-1.37-1.76v.12a11.07 11.07 0 0 0 2.07 3.1c1.65 2.13 2.7 4.68 4.18 6.94a20.83 20.83 0 0 0 2.19 2.77 1.5 1.5 0 0 0 .46.37 1.47 1.47 0 0 0 .55.08c3.16.1 6.44.16 9.34-1.08a4.27 4.27 0 0 0 2.24-1.8 6.35 6.35 0 0 0 .22-3.6 17.58 17.58 0 0 1 .09-4 1.85 1.85 0 0 1 .51-1.19 1.6 1.6 0 0 1 1.6-.05 4.36 4.36 0 0 0 1.59.48c1.1 0 1.78-1.24 2-2.32a9.82 9.82 0 0 1 .59-3.21 10.06 10.06 0 0 1 1.64-1.88 7.72 7.72 0 0 0 1.4-6.84z" class="D"/>
    <path d="M681.94 235.14l-8.64 18.36s-1.27 3.45-2.1 4.1-4.45 11.54-4.45 11.54l-9.27 14.28-.63 1-3.63-1-2.55-9.52.15-2.76v-.35s5.72-6 7-6.45c0 0 1 .12 2.9-4.53s3.64-5.65 3.64-5.65l1-3.36 10.73-17.1s9-12.9 11.45-7.17-5.6 8.6-5.6 8.6zm-35.88 130.42a2.07 2.07 0 0 1-.29.88c-1 1.46-6.63 31.17-6.63 31.17.45 2-.82 6-1.64 7.82s-2.64 11.26-2.64 11.26-.45 20.36-1.62 23.54.37 10 .37 10c-.1 3.13 1.77 6.45 2.9 8.13l.22.32c.36.52.6.82.6.82a4.84 4.84 0 0 0 1.27 1.57l.26.2a14.68 14.68 0 0 0 5.09 2.15h.18a18.32 18.32 0 0 0 1.2.23l.45 2.46-4.8 1-9.18.63s-10.82.83-8.36-4a7.65 7.65 0 0 0 .44-1 7.61 7.61 0 0 0 .25-.72c1.48-4.63.48-10.26.48-10.26l-2.1-16.44c-3.45-15.27 2.7-32.26 2.7-32.26s-.53-1.36.65-4.8 0-11 0-11-.63-9.72-1.45-14.53a29.46 29.46 0 0 1-.33-6.13 30.51 30.51 0 0 1 .33-3.58l20.7-2.75s1.2 3.37.94 5.3z" class="J"/>
    <path d="M645.77 466.13l-4.8 1-9.18.63s-10.82.83-8.36-4a7.65 7.65 0 0 0 .44-1 7.61 7.61 0 0 0 .25-.72 17 17 0 0 1 5.48 1.1c3.08 1.2 5.4-1.9 5.4-1.9l1.5-2.86.22-.4.6.82a5 5 0 0 0 1.53 1.77l-.26.53-1.45 3.06 4.4.6a2 2 0 0 0 2.4-1.31h.18l1.2.23z" class="B"/>
    <path d="M650.22 468.4c-.36 1.64-10.5 2.14-10.5 2.14s-5.64-.54-7.22.77-6.23 1-6.4 1-2.63-.1-3.6-4.5 1.25-5 1.35-5.07a16.59 16.59 0 0 1 5.73 1.11c3.08 1.2 5.4-1.9 5.4-1.9l1.72-3.27c.36.52.6.82.6.82a5 5 0 0 0 1.53 1.77l-1.7 3.6s1.86.2 4.4.6a2.11 2.11 0 0 0 2.58-2 2.41 2.41 0 0 0 0-.27l3.54 1a3.65 3.65 0 0 1 2.57 4.22z" class="K"/>
    <path d="M669.3 387.22c-.24 1.45-.5 5.2-.5 5.2.85 3.15-1.33 10.63-1.33 10.63l-1.1 4.27c.48 5.45-3 18.78-3 18.78l-3.54 17.7a14.63 14.63 0 0 0 .63 8.91l.1.22c0 .1.05.2.07.3a3.09 3.09 0 0 0 .14.43 6.39 6.39 0 0 0 1.19 2 5.89 5.89 0 0 0 .65.67 13.21 13.21 0 0 0 3.86 2.38l.6.24a18.85 18.85 0 0 0 1.93.6h.22l-.5 2.86-6.42-1.65-8.6-2.8-4.17-2.34s0-.23.13-.67a.22.22 0 0 0 0-.08c0-.2.08-.4.13-.67.66-3.75 2.3-14.24 1.48-22-1-9.57 3-22.78 3.93-25.92a15.67 15.67 0 0 0 .73-5.58c-1.58-2.3-1.94-11.5-1.94-11.5s-2.9-5.94-5.3-12.24a31.27 31.27 0 0 1-1.73-6.37 21.59 21.59 0 0 1-.35-4.65s19.5-17.8 21.65-.57l.2 1.7c1.9 15.85 1.04 18.75.8 20.16z" class="J"/>
    <path d="M669.3 459.63l-.5 2.86-6.42-1.65-8.6-2.8-4.23-2.42s0-.23.13-.67a.22.22 0 0 0 0-.08c0-.2.08-.4.13-.67h.6a7.9 7.9 0 0 1 3.6.49c1.4.52 3.24 1.12 3.6.87a4.56 4.56 0 0 1 2.06-.36l.9-2 .14-.3a6.28 6.28 0 0 0 1.19 2 7.71 7.71 0 0 0 .69.71v.7l-.05 1a12.52 12.52 0 0 0 3.09 1.42 1.78 1.78 0 0 0 .86 0l.6.24a18.85 18.85 0 0 0 1.93.6z" class="B"/>
    <path d="M666.1 465.76c-1.8-.5-6.1-1.34-6.8-.7s-6.7 0-6.7 0a3.64 3.64 0 0 1-3.09-1.81c-1.25-1.94-.24-8.2-.24-8.2h.44l.74-.08a8 8 0 0 1 3.6.48c1.4.53 3.24 1.13 3.6.88a4.47 4.47 0 0 1 2.06-.37l1-2.25a6.39 6.39 0 0 0 1.19 2 6.52 6.52 0 0 0 .69.7l-.1 1.67a12.79 12.79 0 0 0 3.09 1.43 1.25 1.25 0 0 0 1.48-.47 1.19 1.19 0 0 0 .11-.25 11.06 11.06 0 0 0 2.54.84 4.64 4.64 0 0 1 5 3.56c.95 2.8-6.84 3.1-8.63 2.58z" class="K"/>
    <path d="M646.06 365.56l-1.1.34a15.5 15.5 0 0 1-2.67.56c-5.74.8-15.2.32-18.2.13a30.51 30.51 0 0 1 .33-3.58l20.7-2.75s1.18 3.37.93 5.3z" class="B"/>
    <path d="M664.13 360.53s-7.6 1.18-13.8 2.53l-5.4 1.38a16.43 16.43 0 0 1-2.67.57c-6.9 1-19.13.07-19.13.07-3.36-10.9 4.08-24.63 4.08-24.63-.17-1.1 1.55-4.44 1.55-4.44v-.1l1.06-3.9h28.25l.35 1.67.72 3.4 4.44 21.07z" class="K"/>
    <path d="M668.5 367.14l-.17.07-3.3 1.47c-3.58 1.65-14.3 2-18 2a21.59 21.59 0 0 1-.35-4.65c0 0 19.5-17.8 21.65-.57.04.58.1 1.17.18 1.68z" class="B"/>
    <path d="M669.03 365.45l-.7.3-3.3 1.47c-3.64 1.68-14.7 2-18.24 2h-.93c-1.63-.05-3.27-1.58-3.27-2 0-.22-.17-1.3-.3-2.22l-.23-1.38a87.45 87.45 0 0 1-11-5.69c-2.77-1.9-2.07-15.32-1.54-22.07l.36-3.86 32.6 1.9 2.3.5.6.13s1.65 12 2.46 13 .28 4.36.18 6.28a11.42 11.42 0 0 1-.27 2.45c0 0 1.18 3.36.9 5.24a10.47 10.47 0 0 0 .38 3.93z" class="K"/>
    <g class="J">
        <circle cx="638.41" cy="254.14" r="11.72"/>
        <path d="M632.7 259.02s.8 11.1-1.46 13.65a103.38 103.38 0 0 1-8.18 7.36l1.82 7.54 10.27 1.18 12-12.8-2.73-3.3s-2.1-7.1-.37-10.63-11.35-2.98-11.35-2.98z"/>
    </g>
    <path d="M657.5 283.4l-.63 1-3.63-1-2.55-9.52.15-2.76.75-1.08s4 .1 3.83 3.73c-.17 3.18 1.65 8.42 2.08 9.63zm7.9 52.6l-6.2 1.07c-3.3.43-7.13.66-8.7-.26-2.63-1.56-16.88-1.1-21-.95h-.7l1.06-3.9h28.25l.35 1.67 4 .23 2.3.5c.42.98.65 1.62.65 1.62z" class="B"/>
    <path fill="#ffcde5" d="M650.86 270.76s4 .1 3.82 3.73 2.18 9.9 2.18 9.9l-.9 2.1s-1.27 5.1-.27 6.36 4.63 1.27 2.54 11.72c0 0-.45 7.82.64 10.36s1.1 8.63 2.72 11.18a60.33 60.33 0 0 1 3.82 8.45c0 0-11.8 2.63-14.9.82s-22.08-.9-22.08-.9.1-3.18 0-3.55a2.94 2.94 0 0 1 .45-2.31c.64-.87 1.64-2.32 1.1-3.6s1.36-3.15.36-5.12-2.2-2.36-2-3.44a4.63 4.63 0 0 0-1.12-3.44c-.72-.9-5.63-10.5-5.63-10.5l-.82-4.48s-6.32-4.63-6.2-6.8 2.4-5.2 2.4-5.2l6.08-6s3.37 3.63 6.64 2.36 10.3-7.36 10.3-7.36 2.5-1.36 2.7-2.36 1.73-.1 1.73-.1 2.27-1.25 2.72-.8a8 8 0 0 0 2.46.81z"/>
    <path d="M616.5 289.7l-1.93 1.52a25.55 25.55 0 0 0-2.43 9.9 130.57 130.57 0 0 1-2.45 15.34l-3.82 6.83s-6.27 13.17-7.1 16.67-4.54 9.4-4.54 9.4-12.63 11.35-3.82 13.4 9.1-9 9.1-9 2-2.27 2.4-3.82 11.5-21.3 11.5-21.3 3.9-5.32 3.1-8.14c0 0 5.1-12 5.1-15a52.71 52.71 0 0 0-.82-7.48l.82-6.27z" class="J"/>
    <path d="M642.68 314.74s-8.9 4.66-10.63 4.9 7.54-1 7.54-1zm7.26 3.63s-11.8 4-17 3.28c0-.02 12.92 2.45 17-3.28zm.74 1.3s-10.64 6.7-16.9 5.6c0 0 14.63 2.9 16.9 1.36l-6.54-1.8s7.26-3.85 6.54-5.15zm-12.25-86.18a11.06 11.06 0 0 0-9 1.69c-1.82 1.43-3 3.62-5.08 4.7a27.21 27.21 0 0 1-3.32 1.17 9.59 9.59 0 0 0-5.85 10.32c.32 1.8 1.16 3.46 1.58 5.24.74 3.17.08 6.5-.72 9.65a101.73 101.73 0 0 1-10.1 25.05 2.66 2.66 0 0 0-.5 1.68 2.47 2.47 0 0 0 .62 1.07c4.2 4.85 11 6.52 17.45 6.74a13.48 13.48 0 0 0 6.92-1.15 10.48 10.48 0 0 0 3.37-3.09 16.42 16.42 0 0 0 3.14-10.56c-.17-3.05-1.2-6.13-.42-9.08a2.32 2.32 0 0 1 .54-1.11c.7-.7 1.84-.52 2.82-.64 2.67-.3 4.4-3.12 4.7-5.8s-.35-5.35-.37-8a16.86 16.86 0 0 1 3.17-9.89c.9-1.22 2-2.42 2.32-3.95.38-1.92-.73-3.33-1.7-4.84-1.5-2.36-2.22-5.1-4.5-6.9a12.11 12.11 0 0 0-5.1-2.29z" class="B"/>
    <path fill="#985c7e" d="M637.7 232.78a11 11 0 0 0-8.94 1.69c-1.82 1.44-3 3.63-5.1 4.7a29 29 0 0 1-3.32 1.16 9.59 9.59 0 0 0-5.85 10.3c.32 1.8 1.16 3.46 1.58 5.24.74 3.17.1 6.5-.72 9.65a101.54 101.54 0 0 1-10.09 25 2.56 2.56 0 0 0-.5 1.68 2.31 2.31 0 0 0 .61 1.07c4.2 4.86 11 6.52 17.45 6.74a13.55 13.55 0 0 0 6.92-1.14 10.62 10.62 0 0 0 3.37-3.1 16.43 16.43 0 0 0 3.13-10.56c-.18-3-1.2-6.13-.43-9.08a2.51 2.51 0 0 1 .54-1.11c.7-.7 1.84-.52 2.83-.63 2.66-.3 4.38-3.13 4.7-5.8s-.35-5.35-.36-8a16.76 16.76 0 0 1 3.17-9.88c.88-1.23 2-2.43 2.32-4 .37-1.92-.74-3.32-1.7-4.84-1.5-2.35-2.22-5.1-4.5-6.9a12.11 12.11 0 0 0-5.13-2.19z"/>
    <path d="M633.78 346.4s2.33 10.9 6.2 13.87z" class="B"/>
    <path d="M615.2 253.1l-.4-1.27.4 1.27zm33.14-9.47a4 4 0 0 1 0 1c-.3 1.53-1.43 2.73-2.32 3.95a16.89 16.89 0 0 0-3.17 9.89c0 2.7.68 5.37.36 8s-2 5.48-4.7 5.78c-1 .12-2.13-.07-2.82.64a2.53 2.53 0 0 0-.55 1.11c-.77 2.95.26 6 .43 9.08a16.43 16.43 0 0 1-3.18 10.55 10.37 10.37 0 0 1-3.37 3.09 13.43 13.43 0 0 1-6.91 1.15c-6.3-.2-13-1.84-17.24-6.5a1.66 1.66 0 0 0-.1.88 2.31 2.31 0 0 0 .61 1.07c4.2 4.86 11 6.52 17.45 6.74a13.55 13.55 0 0 0 6.92-1.14 10.62 10.62 0 0 0 3.37-3.1 16.43 16.43 0 0 0 3.13-10.56c-.18-3-1.2-6.13-.43-9.08a2.51 2.51 0 0 1 .54-1.11c.7-.7 1.84-.52 2.83-.63 2.66-.3 4.38-3.13 4.7-5.8s-.35-5.35-.36-8a16.76 16.76 0 0 1 3.17-9.88c.88-1.23 2-2.43 2.32-4a4.49 4.49 0 0 0-.68-3.13z" class="B"/>
    <g class="C">
        <ellipse cx="129.18" cy="500.1" class="B" rx="21.16" ry="2.14"/>
        <path d="M136.58 464.72s-27.6 14.26-13.34 31a5.3 5.3 0 0 0 5.22 3.39c0 0-.78-1.4 2.2-2.54a14.43 14.43 0 0 0 3-1.58 7 7 0 0 0 2.67-3.57s5.65-7.55 1.27-21.52c0 0 .57-4 .07-4.6l-3.35 4.6s3.47 2.33 3.87 5.75c0 0-3.6-5.74-4.4-5.08-.16.13-1.66 2.5-1.66 2.5s6 4.08 6.45 9.37c0 0-3.38-7.4-7-8.47l-2.06 3.73s6.56 4 7.3 10c0 0-3.8-7.62-7.7-9.15l-1.53 3.94s6.32 4 6.9 9c0 0-5.3-8.36-7.2-8.1 0 0-1.2 3.7-1 4.84 0 0 4.48 3 4.56 5.93 0 0-4.13-5.22-4.77-4.87 0 0-.26 5.24 1 8a15.9 15.9 0 0 1-1.83-8 8.69 8.69 0 0 0-2.64 4.26c0 0-1.2-2.9 2.72-5.53 0 0 .37-4.08.82-4.58 0 0-4.23 2.06-6 4.6 0 0 .66-3.78 6.4-5.66l1.46-4s-5.74 2.43-7.52 4.57c0 0 1.28-3.75 8-5.55l2-3.68s-5.1 1.72-7.6 3.68c0 0 1.93-3.23 8.2-4.7l1.62-2.3s-3.7 1.33-4.74 1.8-1.24.24-1.24.24a13.28 13.28 0 0 1 6.64-3s3.45-4.47 3.2-4.72z"/>
    </g>
    <path fill="url(#A)" d="M224.83 561.47c2.9 1.7 7.4 2.82 13.1-.85l-.06 8.1c.4 5.57 7.28 25.83 7.28 25.83l4.85 16.68a130.43 130.43 0 0 1 5.34 36.27 34.66 34.66 0 0 0 1.55 11.42c2.58 7-1 16-2.58 19.33-2.88 1-5.85 1.75-8 2.25a5.48 5.48 0 0 0-.72.22v-.05s-7.28 2.9-10.52 2.5c-2.4-.3-3.92 2.7-2 4.92a14.67 14.67 0 0 1-4.85.64c-3.24-.4-4.85 5.17 1.2 6.76s40.46 0 40.46 0a4.88 4.88 0 0 0 2.59-5.39l4.3-.18s6.07-2.78 0-10.33l-.32.25-1.3-3.82v-5.17s7.7-37 5.26-41.32-3.64-26.62-3.64-26.62l.8-24.24c2.2-4.53 3.32-11.62 3.9-17.17a36.58 36.58 0 0 0 1.55-8.15l.22-4.1a27.45 27.45 0 0 0-1.47-9.15 90.44 90.44 0 0 1 9.16-11.51 11.79 11.79 0 0 0 3.64-10.33l-2-13.5-4.86-23c.6-6.4-.72-10.08-2.2-12.16.35-2.06.68-4.13.93-6.2a79.35 79.35 0 0 0-1.42-27c-.7-3.1-1.66-6.26-3.82-8.6-2.46-2.65-6.44-4.27-7.35-7.74a25.21 25.21 0 0 0-.56-2.61c-.9-2.28-3.7-3.1-6.16-3.4-4.38-.53-10.7-.94-14.92.78-2.93 1.2-7 4.5-8.6 8.06a6.91 6.91 0 0 0-1 5 6.56 6.56 0 0 0 .7 1.69 15.22 15.22 0 0 0-1 5.33 15.51 15.51 0 0 0 9.9 14.38l.26.9a15 15 0 0 1 .39 2.16l-.23 4.22a4.74 4.74 0 0 1-.15.57 103.79 103.79 0 0 0-10.17 5.19c2.43 3.57-.4 18.67-.4 18.67-6.07 3.58-12.14 12.72-5.67 22.25s2.83 19.75 2.83 19.75l-1.2 18.64h.08l-.08 1.18h.17v1.27c-2.85 1-7 3.14-9.47 7a25.08 25.08 0 0 1-4.24 5.2 3.12 3.12 0 0 0 .49 5.18zm48.85-41.28a14.75 14.75 0 0 1 1.44-7.81h2.86a22.09 22.09 0 0 0 .35 1.89c.82 3.54-2.46 5.2-4.65 5.92z" transform="translate(-61.06 -71.37)"/>
    <use class="F" xlink:href="#B"/>
    <use class="B" xlink:href="#B"/>
    <path fill="#2e3037" d="M185 614.12l2.34-3.12-2.34-3.6s-7 2.82-10.12 2.43-4.67 5.07 1.17 6.62 38.93 0 38.93 0 5.84-2.72 0-10.12l-5.04 3.9s-8.57 4.68-12.85 3.9z"/>
    <path d="M174.5 620.74l12.07 1.16 16.74-3.9 5.06-5.06-.4-1.24-.58-1.74-.56-1.7-11.3-3.12a7 7 0 0 1-2.29 2.3c-3.67 2.5-10.26 4.3-14.12 5.22l-.5.14a5.17 5.17 0 0 0-2 1.21 5.12 5.12 0 0 0-1.39 2.42z" class="F"/>
    <path d="M174.5 620.74l12.07 1.16 16.74-3.9 5.06-5.06-.4-1.24-4.65 3.57s-8.56 4.68-12.85 3.9H178.4l2.33-3.12-2.1-3.24a5.17 5.17 0 0 0-2 1.21 5.12 5.12 0 0 0-1.39 2.42z" class="B"/>
    <path fill="#2e3037" d="M178.4 619.57l2.33-3.12-2.33-3.6s-7 2.82-10.13 2.43-4.67 5.07 1.17 6.62 38.93 0 38.93 0 5.84-2.72 0-10.12l-5.06 3.85s-8.56 4.68-12.85 3.9z"/>
    <path d="M188.12 393.77s18.7 1.94 16-5.84a14.15 14.15 0 0 1-.58-6.88 19.11 19.11 0 0 1 3.31-7.92l-17.52 2.73a22.1 22.1 0 0 1 2.37 5.62c2.05 8.26-3.58 12.3-3.58 12.3z" class="F"/>
    <use fill="#474463" xlink:href="#C"/>
    <use class="B" xlink:href="#C"/>
    <use class="M" xlink:href="#D"/>
    <use opacity=".05" xlink:href="#D"/>
    <path d="M193.23 607.46c5 7.86 12.76 3.4 14.14 2.5l-.56-1.7-11.3-3.12a7 7 0 0 1-2.29 2.3z" class="B"/>
    <path fill="#474463" d="M177.6 497.7c.4 5.45 7 25.3 7 25.3l4.67 16.34a129.57 129.57 0 0 1 5.13 35.54 35 35 0 0 0 1.53 11.19c3.12 8.56-3.1 20.24-3.1 20.24 5.45 9.73 14.8 3.12 14.8 3.12v-6.23s7.4-33.87 5.45-40.5-2.72-24.53-2.72-24.53v-32.3a36.72 36.72 0 0 0 10.64-23.26 94.62 94.62 0 0 0 .22-4c.32-8.8-5.7-19.08-8-22.76-.56-.88-.9-1.38-.9-1.38l-34.42 13.64h-.08v4.28z"/>
    <path d="M189.3 375.86a22.1 22.1 0 0 1 2.37 5.62 15.15 15.15 0 0 0 11.84-.43 19.11 19.11 0 0 1 3.31-7.92z" class="B"/>
    <circle cx="197.07" cy="366.52" r="15.18" class="F"/>
    <path d="M177.6 472.4h.16c16.33 3.35 36.82-13.66 36.82-13.66a20.87 20.87 0 0 1-1.42-2.9c-.56-.88-.9-1.38-.9-1.38l-34.38 13.66-.1 1.36z" class="B"/>
    <path d="M181.94 393.38s21.8-13.24 28.8-7.8l9.73 12.46s6.23 1.94 5.06 14.4l4.67 22.58-14 3.5s-8.27 7.78-1.62 19.1c0 0-20.63 17.13-37 13.63l1.16-18.3s3.5-10.12-2.72-19.46-.4-18.3 5.45-21.8c.02-.06 2.75-14.8.46-18.3z" class="M"/>
    <path d="M180.72 472.8s-8.17 1.55-12.07 7.78a24.05 24.05 0 0 1-4.07 5.09 3.09 3.09 0 0 0 .48 4.93c3.1 1.85 8.13 3 14.5-2.23 10.9-8.96 1.17-15.57 1.17-15.57z" class="F"/>
    <path d="M192.8 400.77s7.8-.78 9.73 19.47 5.06 24.92 5.06 24.92 1.95 10.5-2.72 16.74-13.63 19.46-13.63 19.46-9.73 2.73-11.68-7l12.07-22.58s1.95-7.78-2.72-13.23-8.18-41.67 3.9-37.78z" class="B"/>
    <path d="M192 399.63s7.8-.78 9.73 19.46S206.8 444 206.8 444s1.94 10.5-2.73 16.74-13.63 19.46-13.63 19.46-9.73 2.73-11.68-7l12.07-22.58s1.95-7.8-2.72-13.24-8.18-41.68 3.9-37.76z" class="M"/>
    <path d="M185.6 414.2s-.78 12.07 2.72 18.7 3.5 15.18 0 19.86m-4.68-53.36s3.12-3.1 12.07-3.5 12.85-3.12 12.85-3.12" class="B"/>
    <path d="M205.3 346.9c2.36.3 5.07 1.1 5.92 3.33a24.77 24.77 0 0 1 .54 2.56c.88 3.4 4.7 5 7.07 7.6 2.1 2.3 3 5.4 3.68 8.42a79.19 79.19 0 0 1 1.37 26.45c-.76 6.46-2.3 12.82-2.75 19.3s.36 13.3 3.9 18.76c1.52 2.34 3.53 4.4 4.6 7-2.23 1.8-5.3 2.07-8.18 2.17q-5 .16-10 0a10.7 10.7 0 0 1-5.11-1.06 7.81 7.81 0 0 1-2.68-2.88c-1.9-3.25-2.4-7.15-2.32-10.93s.68-7.52.75-11.3c0-2.06-.12-4.24-1.3-5.92a19.19 19.19 0 0 0-3.27-3c-4.16-3.7-5.6-9.62-5.73-15.18s.77-11.14.3-16.7c-.18-2.17-1-4.78-3.13-5.2a13.57 13.57 0 0 1-2-.26c-1.72-.66-1.55-3.08-2-4.85-.55-2-2.24-3.52-2.72-5.53-1.12-4.7 4.87-10.33 8.8-12s10.02-1.3 14.24-.8z" class="B"/>
    <path fill="#472727" d="M205.7 346.1c2.36.3 5.06 1.1 5.92 3.33a24.41 24.41 0 0 1 .54 2.57c.88 3.4 4.7 5 7.07 7.58 2.1 2.3 3 5.4 3.68 8.42a79.19 79.19 0 0 1 1.37 26.45c-.76 6.46-2.3 12.82-2.75 19.3s.36 13.3 3.9 18.76c1.52 2.34 3.53 4.4 4.6 7-2.23 1.8-5.3 2.07-8.18 2.17q-5 .16-10.05 0a10.7 10.7 0 0 1-5.11-1.06 7.86 7.86 0 0 1-2.68-2.87c-1.92-3.26-2.4-7.16-2.32-10.94s.68-7.52.75-11.3c0-2.05-.12-4.24-1.3-5.92a19.6 19.6 0 0 0-3.27-3c-4.16-3.7-5.6-9.6-5.74-15.18s.78-11.14.3-16.7c-.18-2.17-1-4.78-3.13-5.2a13.57 13.57 0 0 1-2-.26c-1.72-.66-1.55-3.08-2-4.85-.55-2-2.24-3.52-2.72-5.53-1.12-4.7 4.87-10.33 8.8-12s10.07-1.27 14.3-.8z"/>
    <g class="C">
        <ellipse cx="961.14" cy="692.67" class="B" rx="24" ry="3.3"/>
        <ellipse cx="869.2" cy="702" class="B" rx="24" ry="3.3"/>
        <ellipse cx="760.91" cy="689.38" class="B" rx="24" ry="3.3"/>
        <ellipse cx="906" cy="728.54" class="B" rx="17.06" ry="2.34"/>
        <ellipse cx="810.58" cy="726.19" class="B" rx="17.06" ry="2.34"/>
        <path d="M868.7 701.25s33.66-110.34-5.27-154.54c-29.12-33.06-62.17-29.1-77-25a27.37 27.37 0 0 0-17.66 14.68c-5.17 11.16-4.24 29.3 32.3 50.44 61.17 35.4 65 84 65 84z"/>
    </g>
    <g fill="none" class="N O">
        <path d="M791.7 537.34s99.23 31 77 163.9"/>
        <path d="M849.67 548.47s-13.67 9.2-9.32 23m-38.7-14.84s8.36-8.5 18.52-3.8m20.76 46.57s14.66-7.44 18.45 1.88m17.8 13.62s-11-.88-11.2 4.4"/>
    </g>
    <path d="M870.05 702.13s-39.42-80.2-50.25-78.44c-5.14.83-7.5 5.9-8.6 11a32.27 32.27 0 0 0 2.15 19.52c5.58 12.8 20.58 37.18 56.7 47.92z" class="C"/>
    <g fill="none" class="N O">
        <path d="M820.1 638.9s41.38 60 49.38 62.64m-53.2-53.26h9.66"/>
        <path d="M827.85 670.23l15.14.65m-5.93-18.2l-1.64 7.9m17.74 16.1l-.3 7.17"/>
    </g>
    <path d="M868.88 702.13s39.42-80.2 50.25-78.44c5.15.83 7.52 5.9 8.6 11a32.27 32.27 0 0 1-2.15 19.52c-5.63 12.8-20.63 37.18-56.7 47.92z" class="C"/>
    <g fill="none" class="N O">
        <path d="M918.84 638.9s-41.38 60-49.37 62.64m53.17-53.26h-9.66"/>
        <path d="M911.07 670.23l-15.14.65m5.93-18.2l1.64 7.9m-17.74 16.1l.3 7.17"/>
    </g>
    <path d="M801.2 720.86a6.81 6.81 0 0 1-2.24-3.39 3 3 0 0 1 1.57-3.45c1.44-.55 3 .45 4.14 1.46s2.5 2.16 4 1.95a6.17 6.17 0 0 1-1.9-5.75 2.42 2.42 0 0 1 .53-1.16c.8-.86 2.25-.5 3.2.18 3 2.14 3.9 6.28 3.9 10a18.89 18.89 0 0 0 0-4.12 4.23 4.23 0 0 1 1.55-3.64 4.65 4.65 0 0 1 2.36-.56 4.9 4.9 0 0 1 3.83 1.09c1.16 1.24.86 3.33-.15 4.7a14.65 14.65 0 0 1-4 3.17 8.9 8.9 0 0 0-2.83 2.7 3.48 3.48 0 0 0-.21.48h-8.57a23.68 23.68 0 0 1-5.2-3.66zm150.2-32.3a6.81 6.81 0 0 1-2.24-3.39 3 3 0 0 1 1.56-3.44c1.44-.56 3 .44 4.15 1.45s2.5 2.16 4 2a6.17 6.17 0 0 1-1.9-5.75 2.42 2.42 0 0 1 .53-1.16c.8-.86 2.25-.5 3.2.18 3 2.14 3.9 6.28 3.9 10a18.89 18.89 0 0 0 0-4.12 4.23 4.23 0 0 1 1.55-3.64 4.65 4.65 0 0 1 2.36-.56 4.86 4.86 0 0 1 3.82 1.09c1.17 1.24.86 3.33-.15 4.7a14.6 14.6 0 0 1-4 3.17 8.9 8.9 0 0 0-2.83 2.7 3.48 3.48 0 0 0-.21.48h-8.57a23.68 23.68 0 0 1-5.19-3.71zm-50.05 32.3a6.83 6.83 0 0 1-2.25-3.39 3 3 0 0 1 1.57-3.45c1.44-.55 3 .45 4.15 1.46s2.5 2.16 4 1.95a6.13 6.13 0 0 1-1.9-5.75 2.33 2.33 0 0 1 .53-1.16c.8-.86 2.24-.5 3.2.18 3 2.14 3.9 6.28 3.9 10a18.89 18.89 0 0 0 .06-4.12 4.22 4.22 0 0 1 1.54-3.64 4.68 4.68 0 0 1 2.36-.56 4.89 4.89 0 0 1 3.83 1.09c1.16 1.24.86 3.33-.15 4.7a14.75 14.75 0 0 1-4 3.17 8.7 8.7 0 0 0-2.83 2.7 2.58 2.58 0 0 0-.21.48h-8.58a23.62 23.62 0 0 1-5.23-3.66zm-142-65.3s-3.22 4.2 1.48 10.55 8.58 11.7 7 15.67c0 0-7.1-11.8-12.86-12s-1.97-7.16 4.38-14.22z" class="C"/>
    <path d="M759.36 655.57a5 5 0 0 0-.66 1.32c-5.63 6.6-8.63 12.8-3.22 12.94 5.05.15 11.1 9.17 12.54 11.44a3.16 3.16 0 0 1-.17.52s-7.1-11.8-12.86-12-1.98-7.16 4.37-14.22z" class="B"/>
    <g class="H">
        <path d="M753.38 660.93c0 1.48.17 2.68.37 2.68s.37-1.2.37-2.68-.2-.78-.4-.78-.33-.7-.33.78z"/>
        <path d="M751.33 662.7c1.3.7 2.43 1.13 2.53.95s-.87-.9-2.17-1.6-.8-.2-.9 0-.77-.05.53.66z"/>
    </g>
    <path d="M776.35 655.57s3.2 4.2-1.5 10.55-8.57 11.7-7 15.67c0 0 7.1-11.8 12.87-12s1.97-7.16-4.38-14.22z" class="C"/>
    <path d="M776.35 655.57a5.16 5.16 0 0 1 .65 1.32c5.64 6.6 8.64 12.8 3.22 12.94-5 .15-11.1 9.17-12.54 11.44 0 .18.1.35.17.52 0 0 7.1-11.8 12.87-12s1.98-7.16-4.37-14.22z" class="B"/>
    <g class="H">
        <path d="M782.32 660.93c0 1.48-.16 2.68-.37 2.68s-.37-1.2-.37-2.68.2-.78.4-.78.33-.7.33.78z"/>
        <path d="M784.38 662.7c-1.3.7-2.44 1.13-2.53.95s.87-.9 2.17-1.6.8-.2.9 0 .77-.05-.53.66z"/>
    </g>
    <path fill="#a8a8a8" d="M781.3 681.24s-9-.28-11.7-2.2-13.83-4.23-14.5-1.13-13.52 15.4-3.36 15.47 23.58-1.58 26.3-3.23 3.27-8.9 3.27-8.9z"/>
    <path d="M751.55 692.3c10.16.08 23.6-1.58 26.3-3.23 2.05-1.25 2.88-5.75 3.15-7.83h.3s-.57 7.25-3.27 8.9-16.14 3.3-26.3 3.23c-2.93 0-3.95-1.07-3.9-2.6.4.94 1.52 1.52 3.7 1.54z" class="D"/>
    <g class="C">
        <ellipse cx="167.29" cy="706.09" class="B" rx="34.72" ry="5.13"/>
        <ellipse cx="251.36" cy="752.14" class="B" rx="34.72" ry="5.13"/>
        <ellipse cx="622.26" cy="632.15" class="B" rx="22.99" ry="2.57"/>
        <ellipse cx="514.79" cy="706.09" class="B" rx="22.99" ry="2.57"/>
        <ellipse cx="466.34" cy="752.14" class="B" rx="22.99" ry="2.57"/>
    </g>
</svg>
